# xmcd
#
# Track frame offsets:
#	183
#	11068
#	23878
#	34960
#	46673
#	57903
#	69300
#	80255
#	91723
#	104253
#	114963
#	125435
#	139340
#	148853
#	159825
#	169510
#	184890
#	195513
#	212110
#	222690
#
# Disc length: 3175 seconds
#
# Revision: 0
# Processed by: cddbd v1.5.1PL0 Copyright (c) Steve Scherf et al.
# Submitted via: dBpowerAMP V4.0
#
DISCID=140c6514
DTITLE=Ben Steneker - A Ride in the Country
DYEAR=1900
DGENRE=Country
TTITLE0=Take a ride in the country
TTITLE1=The French song
TTITLE2=Do what you do do well
TTITLE3=Some broken hearts
TTITLE4=When it's springtime in the rockies
TTITLE5=She taught me how to yodel
TTITLE6=you're my best friend
TTITLE7=Queen of the mean machine
TTITLE8=Please marry me
TTITLE9=Bouquet of roses
TTITLE10=I used to love you
TTITLE11=To all the girls i've loved before
TTITLE12=From a jack to a king
TTITLE13=Don't let me cross over
TTITLE14=Then came may
TTITLE15=Devil women
TTITLE16=Chewing gum
TTITLE17=Lucille
TTITLE18=It doesn't matter anymore
TTITLE19=Adios Amigo
EXTD=
EXTT0=
EXTT1=
EXTT2=
EXTT3=
EXTT4=
EXTT5=
EXTT6=
EXTT7=
EXTT8=
EXTT9=
EXTT10=
EXTT11=
EXTT12=
EXTT13=
EXTT14=
EXTT15=
EXTT16=
EXTT17=
EXTT18=
EXTT19=
PLAYORDER=
